<svg viewBox="0 0 512 512" fill="none" xmlns="http://www.w3.org/2000/svg">
<path d="M502.478 279.36H433.898V206.863C433.898 201.594 429.591 197.242 424.377 197.242H402.272C397.058 197.242 392.751 201.594 392.751 206.863V279.36H324.171C318.957 279.36 314.65 283.712 314.65 288.98V309.939C314.65 315.207 318.957 319.559 324.171 319.559H392.751V392.743C392.751 398.011 397.058 402.364 402.272 402.364H424.377C429.591 402.364 433.898 398.011 433.898 392.743V319.559H502.478C507.692 319.559 511.999 315.207 511.999 309.939V288.98C511.999 283.712 507.805 279.36 502.478 279.36Z" fill="white"/>
<path d="M252.192 488.147C250.038 488.147 247.885 487.345 246.298 485.741L61.5303 307.076C61.4169 306.962 61.1902 306.733 61.0769 306.618L38.5194 281.078C12.4479 251.415 -1.26795 212.705 0.0922984 172.047C1.33919 131.504 17.5488 93.8236 45.434 65.9931L46.2275 65.1913C74.226 37.3608 110.726 22.8157 149.04 24.0755C187.58 25.4498 223.287 42.6292 249.472 72.5212L252.872 76.3007L256.273 72.5212C282.571 42.6292 318.164 25.4498 356.705 24.0755C395.018 22.8157 431.632 37.3608 459.63 65.1913C474.366 79.851 485.815 97.2594 493.637 116.844C501.231 135.741 504.972 155.784 504.972 176.399C504.972 192.547 502.592 208.467 497.831 223.814C496.47 228.395 491.596 230.915 487.062 229.54C482.528 228.166 480.034 223.241 481.394 218.66C485.588 205.031 487.742 190.83 487.742 176.399C487.742 139.062 473.006 102.986 447.388 77.5605C422.79 53.1658 390.711 40.3386 357.158 41.4839C323.379 42.6292 292.093 57.747 268.969 84.0886L259.22 95.1979C257.633 97.0304 255.253 98.0611 252.759 98.1757C250.265 98.1757 247.998 97.1449 246.298 95.3124L236.549 84.2031C213.425 57.8615 182.139 42.7437 148.36 41.5984C114.807 40.4531 82.7275 53.2803 58.1297 77.675L57.3362 78.4767C6.21343 129.328 3.49293 215.11 51.3284 269.625L73.5458 294.936L252.192 467.531L330.18 392.057C333.58 388.735 339.021 388.85 342.309 392.286C345.596 395.722 345.483 401.219 342.082 404.54L258.2 485.741C256.5 487.345 254.346 488.147 252.192 488.147Z" fill="white"/>
</svg>
