<svg width="75" height="75" viewBox="0 0 75 75" fill="none" xmlns="http://www.w3.org/2000/svg">
<path d="M2.34375 5.85938C2.34375 5.21484 1.81641 4.6875 1.17188 4.6875C0.527344 4.6875 0 5.21484 0 5.85938V59.7656C0 65.5957 4.7168 70.3125 10.5469 70.3125H73.8281C74.4727 70.3125 75 69.7852 75 69.1406C75 68.4961 74.4727 67.9688 73.8281 67.9688H10.5469C6.02051 67.9688 2.34375 64.292 2.34375 59.7656V5.85938ZM51.5625 51.5625H69.1406C69.7852 51.5625 70.3125 51.0352 70.3125 50.3906V32.8125C70.3125 32.168 69.7852 31.6406 69.1406 31.6406C68.4961 31.6406 67.9688 32.168 67.9688 32.8125V47.5635L43.0225 22.6025C42.5684 22.1484 41.8213 22.1484 41.3672 22.6025L28.125 35.8447L14.8975 22.6172C14.4434 22.1631 13.6963 22.1631 13.2422 22.6172C12.7881 23.0713 12.7881 23.8184 13.2422 24.2725L27.3047 38.335C27.7588 38.7891 28.5059 38.7891 28.96 38.335L42.1875 25.0928L66.3135 49.2188H51.5625C50.918 49.2188 50.3906 49.7461 50.3906 50.3906C50.3906 51.0352 50.918 51.5625 51.5625 51.5625Z" fill="#80BD42"/>
</svg>
