<svg width="75" height="75" viewBox="0 0 75 75" fill="none" xmlns="http://www.w3.org/2000/svg">
<path d="M37.5 6.87012L35.1953 4.2334C31.3672 -0.131836 25.1693 -0.131836 21.3411 4.2334C17.513 8.59863 17.513 15.6885 21.3411 20.0537L34.5703 35.1709C35.3776 36.0938 36.4323 36.5479 37.5 36.5479C38.5677 36.5479 39.6224 36.0938 40.4297 35.1709L53.6589 20.0537C57.487 15.6885 57.487 8.59863 53.6589 4.2334C49.8307 -0.131836 43.6328 -0.131836 39.8047 4.2334L37.5 6.87012ZM38.2422 9.36035L41.2891 5.87402C44.2969 2.43164 49.1667 2.43164 52.1745 5.87402C55.1953 9.33105 55.1953 14.9414 52.1745 18.3984L38.9453 33.5303C38.5417 33.9844 38.0208 34.2188 37.5 34.2188C36.9792 34.2188 36.4583 33.999 36.0547 33.5303L22.8255 18.4131C19.8047 14.9561 19.8047 9.3457 22.8255 5.88867C25.8333 2.44629 30.7031 2.44629 33.7109 5.88867L36.7578 9.375C37.1615 9.84375 37.8385 9.84375 38.2422 9.375V9.36035ZM67.9427 49.9072C69.3359 48.75 71.2891 49.0869 72.3177 50.6543C73.3464 52.2217 73.0469 54.4189 71.6536 55.5762L55.1562 69.2285C52.474 71.4551 49.2318 72.6562 45.8984 72.6562H1.04167C0.46875 72.6562 0 73.1836 0 73.8281C0 74.4727 0.46875 75 1.04167 75H45.8984C49.6745 75 53.3594 73.6377 56.4062 71.1182L72.8906 57.4512C75.2083 55.5322 75.7031 51.8701 73.9974 49.2627C72.2917 46.6553 69.0365 46.0986 66.7188 48.0176L51.3932 60.7031C51.2109 60.8496 51.0026 60.9375 50.7812 60.9375H34.8958C34.0365 60.9375 33.3333 60.1465 33.3333 59.1797C33.3333 58.2129 34.0365 57.4219 34.8958 57.4219H45.3125C47.9036 57.4219 50 55.0635 50 52.1484C50 49.2334 47.9036 46.875 45.3125 46.875H25.2214C21.4323 46.875 17.7604 48.3252 14.8047 50.9766L9.24479 55.9863C9.0625 56.1475 8.82812 56.25 8.59375 56.25H1.04167C0.46875 56.25 0 56.7773 0 57.4219C0 58.0664 0.46875 58.5938 1.04167 58.5938H8.59375C9.29688 58.5938 9.98698 58.3154 10.5469 57.8174L16.1068 52.8076C18.6979 50.4785 21.901 49.2188 25.2214 49.2188H45.3125C46.7448 49.2188 47.9167 50.5371 47.9167 52.1484C47.9167 53.7598 46.7448 55.0781 45.3125 55.0781H34.8958C32.8776 55.0781 31.25 56.9092 31.25 59.1797C31.25 61.4502 32.8776 63.2812 34.8958 63.2812H50.7682C51.4323 63.2812 52.0833 63.0469 52.6172 62.5928L67.9297 49.9072H67.9427Z" fill="#80BD42"/>
</svg>
