<svg width="200" height="75" viewBox="0 0 200 75" fill="none" xmlns="http://www.w3.org/2000/svg">
<g clip-path="url(#clip0_29_2)">
<path d="M81.1905 41.2657H70.1099V29.5522C70.1099 28.701 69.4139 27.9978 68.5714 27.9978H65C64.1575 27.9978 63.4615 28.701 63.4615 29.5522V41.2657H52.3809C51.5384 41.2657 50.8425 41.9689 50.8425 42.8201V46.2065C50.8425 47.0577 51.5384 47.7609 52.3809 47.7609H63.4615V59.5855C63.4615 60.4367 64.1575 61.1399 65 61.1399H68.5714C69.4139 61.1399 70.1099 60.4367 70.1099 59.5855V47.7609H81.1905C82.0329 47.7609 82.7289 47.0577 82.7289 46.2065V42.8201C82.7289 41.9689 82.0513 41.2657 81.1905 41.2657Z" fill="white"/>
<path d="M40.751 75.0001C40.403 75.0001 40.055 74.8706 39.7986 74.6115L9.94513 45.744C9.92682 45.7255 9.89019 45.6885 9.87187 45.67L6.22718 41.5434C2.01473 36.7507 -0.201388 30.4961 0.018392 23.9269C0.219857 17.3761 2.8389 11.2881 7.3444 6.7914L7.4726 6.66186C11.9964 2.16519 17.8939 -0.184919 24.0843 0.018634C30.3114 0.240692 36.0807 3.01641 40.3114 7.84617L40.8609 8.45683L41.4103 7.84617C45.6594 3.01641 51.4103 0.240692 57.6374 0.018634C63.8279 -0.184919 69.7437 2.16519 74.2675 6.66186C76.6484 9.03048 78.4982 11.8432 79.762 15.0075C80.9891 18.0608 81.5935 21.2992 81.5935 24.63C81.5935 27.2392 81.2089 29.8114 80.4396 32.291C80.2199 33.0312 79.4323 33.4383 78.6997 33.2163C77.9671 32.9942 77.5642 32.1985 77.784 31.4583C78.4616 29.2562 78.8096 26.9616 78.8096 24.63C78.8096 18.5975 76.4286 12.7684 72.2895 8.66038C68.3151 4.71886 63.1319 2.64632 57.7107 2.83137C52.2528 3.01641 47.1979 5.45905 43.4616 9.71516L41.8865 11.5101C41.6301 11.8062 41.2455 11.9727 40.8426 11.9912C40.4396 11.9912 40.0733 11.8247 39.7986 11.5286L38.2235 9.73366C34.4873 5.47755 29.4323 3.03492 23.9744 2.84987C18.5532 2.66482 13.37 4.73736 9.39568 8.67889L9.26748 8.80842C1.0074 17.0246 0.567843 30.8847 8.29678 39.693L11.8865 43.7825L40.751 71.6693L53.3517 59.4746C53.9012 58.938 54.7803 58.9565 55.3114 59.5116C55.8426 60.0668 55.8242 60.955 55.2748 61.4916L41.7217 74.6115C41.447 74.8706 41.099 75.0001 40.751 75.0001Z" fill="white"/>
<path d="M98.2234 56.4952C97.033 56.4952 96.0989 56.9023 95.4029 57.698C94.707 58.4937 94.3773 59.5855 94.3773 60.9734C94.3773 62.3982 94.707 63.5085 95.3663 64.2857C96.0256 65.0629 96.978 65.4515 98.2051 65.4515C98.956 65.4515 99.8168 65.322 100.788 65.0444V66.1547C100.037 66.4323 99.1209 66.5803 98.022 66.5803C96.4286 66.5803 95.2015 66.0992 94.3406 65.1184C93.4798 64.1377 93.0403 62.7498 93.0403 60.9549C93.0403 59.8261 93.2417 58.8453 93.663 57.9941C94.0842 57.1429 94.6886 56.4952 95.4762 56.0326C96.2637 55.57 97.1795 55.3479 98.2601 55.3479C99.3956 55.3479 100.385 55.5515 101.227 55.9771L100.696 57.0688C99.8535 56.6987 99.0476 56.4952 98.2234 56.4952Z" fill="white"/>
<path d="M111.355 66.4508H110.092V61.3064H104.396V66.4508H103.132V55.5329H104.396V60.1776H110.092V55.5144H111.355V66.4508Z" fill="white"/>
<path d="M120.348 66.4508H114.322V55.533H120.348V56.6618H115.586V60.1777H120.073V61.3065H115.586V65.322H120.348V66.4508Z" fill="white"/>
<path d="M127.381 56.4952C126.19 56.4952 125.256 56.9023 124.56 57.698C123.864 58.4937 123.535 59.5855 123.535 60.9734C123.535 62.3982 123.864 63.5085 124.524 64.2857C125.183 65.0629 126.136 65.4515 127.363 65.4515C128.114 65.4515 128.974 65.322 129.945 65.0444V66.1547C129.194 66.4323 128.278 66.5803 127.18 66.5803C125.586 66.5803 124.359 66.0992 123.498 65.1184C122.637 64.1377 122.198 62.7498 122.198 60.9549C122.198 59.8261 122.399 58.8453 122.821 57.9941C123.242 57.1429 123.846 56.4952 124.634 56.0326C125.421 55.57 126.337 55.3479 127.418 55.3479C128.553 55.3479 129.542 55.5515 130.385 55.9771L129.853 57.0688C129.011 56.6987 128.205 56.4952 127.381 56.4952Z" fill="white"/>
<path d="M140.11 66.4508H138.626L134.689 61.1584L133.553 62.1762V66.4508H132.289V55.533H133.553V60.9549L138.462 55.533H139.945L135.604 60.2702L140.11 66.4508Z" fill="white"/>
<path d="M149.78 55.5144V62.5833C149.78 63.8231 149.414 64.8039 148.663 65.5255C147.912 66.2472 146.886 66.5988 145.586 66.5988C144.286 66.5988 143.278 66.2472 142.564 65.5255C141.85 64.8039 141.502 63.8231 141.502 62.5648V55.5329H142.766V62.6573C142.766 63.564 143.004 64.2672 143.498 64.7483C143.993 65.2295 144.707 65.4885 145.678 65.4885C146.593 65.4885 147.289 65.248 147.784 64.7483C148.278 64.2487 148.516 63.5455 148.516 62.6388V55.5144H149.78Z" fill="white"/>
<path d="M159.487 58.6973C159.487 59.8076 159.121 60.6588 158.37 61.2509C157.619 61.8431 156.557 62.1392 155.165 62.1392H153.901V66.4323H152.637V55.5144H155.44C158.132 55.5144 159.487 56.5877 159.487 58.6973ZM153.883 61.0659H155.018C156.135 61.0659 156.941 60.8808 157.436 60.5292C157.93 60.1591 158.187 59.5855 158.187 58.7713C158.187 58.0496 157.949 57.513 157.491 57.1614C157.015 56.8098 156.3 56.6247 155.293 56.6247H153.883V61.0659Z" fill="white"/>
<path d="M106.099 25.5921H101.502V18.6158H96.1721V25.5921H91.5751V8.47519H96.1721V14.8223H101.502V8.47519H106.099V25.5921Z" fill="white"/>
<path d="M119.817 25.5921H109.762V8.47519H119.817V12.1947H114.341V14.8964H119.414V18.6158H114.341V21.8542H119.817V25.5921Z" fill="white"/>
<path d="M133.187 25.5922L132.344 22.3908H126.831L125.971 25.5922H120.934L126.465 8.40118H132.601L138.205 25.5922H133.187ZM131.41 18.5973L130.678 15.7846C130.513 15.1554 130.293 14.3597 130.055 13.3605C129.817 12.3612 129.652 11.658 129.579 11.2324C129.505 11.6395 129.377 12.2872 129.176 13.1939C128.974 14.1007 128.516 15.9141 127.82 18.5973H131.41Z" fill="white"/>
<path d="M140.037 25.5921V8.47519H144.615V21.8542H151.136V25.5921H140.037Z" fill="white"/>
<path d="M161.319 25.5921H156.74V12.2502H152.601V8.47519H165.44V12.2502H161.319V25.5921Z" fill="white"/>
<path d="M182.399 25.5921H177.802V18.6158H172.473V25.5921H167.875V8.47519H172.473V14.8223H177.802V8.47519H182.399V25.5921Z" fill="white"/>
<path d="M192.106 14.8224L195.018 8.4752H199.982L194.414 18.9119V25.5922H189.799V19.0414L184.231 8.4567H189.212L192.106 14.8224Z" fill="white"/>
<path d="M111.355 49.0007H105.934L104.304 41.5433C104.231 41.2287 104.103 40.6181 103.938 39.6743C103.773 38.7491 103.645 37.9719 103.571 37.3427C103.516 37.8423 103.407 38.49 103.278 39.2302C103.132 39.9889 103.004 40.6736 102.875 41.3027C102.747 41.9319 102.179 44.5041 101.19 48.9822H95.7692L91.5751 31.8838H95.989L97.8388 40.47C98.2601 42.376 98.5348 43.8749 98.6996 45.0037C98.7912 44.208 98.9743 43.1347 99.2307 41.7654C99.4872 40.396 99.7253 39.2672 99.9633 38.3605L101.465 31.8838H105.714L107.161 38.3605C107.399 39.3967 107.656 40.5996 107.912 41.9504C108.168 43.3013 108.333 44.319 108.425 45.0037C108.516 44.134 108.791 42.6351 109.249 40.4885L111.136 31.8838H115.549L111.355 49.0007Z" fill="white"/>
<path d="M127.766 49.0007H117.711V31.8838H127.766V35.6033H122.289V38.305H127.363V42.0059H122.289V45.2443H127.766V49.0007Z" fill="white"/>
<path d="M130.751 31.8838H136.667C138.974 31.8838 140.678 32.2354 141.795 32.9201C142.912 33.6047 143.462 34.678 143.462 36.1399C143.462 37.1021 143.223 37.9164 142.729 38.601C142.234 39.2857 141.593 39.7113 140.806 39.9149V40.0259C141.85 40.3035 142.619 40.7661 143.095 41.4323C143.571 42.0799 143.81 42.9312 143.81 43.9859C143.81 45.5403 143.223 46.7617 142.07 47.6499C140.916 48.5381 139.341 48.9822 137.344 48.9822H130.751V31.8838ZM135.33 38.453H136.703C137.363 38.453 137.875 38.3235 138.223 38.0459C138.59 37.7683 138.755 37.3612 138.755 36.8246C138.755 35.8623 138.04 35.3812 136.593 35.3812H135.311V38.453H135.33ZM135.33 41.8394V45.4293H136.941C138.37 45.4293 139.084 44.8187 139.084 43.5973C139.084 43.0237 138.901 42.5981 138.516 42.2835C138.132 41.9689 137.582 41.8209 136.85 41.8209H135.33V41.8394Z" fill="white"/>
</g>
<defs>
<clipPath id="clip0_29_2">
<rect width="200" height="75" fill="white"/>
</clipPath>
</defs>
</svg>
