<svg width="175" height="55" viewBox="0 0 175 55" fill="none" xmlns="http://www.w3.org/2000/svg">
<g clip-path="url(#clip0_1_86)">
<path d="M47.495 13.5742L23.975 0.0869025L23.8175 0L23.66 0.0869025L0.28 13.5046L0.1575 13.5742L0 13.6611V40.9832L0.1575 41.0701L23.6775 54.5574L23.835 54.6443L23.9925 54.5574L47.1975 41.2613L47.5125 41.0875L47.67 41.0006V13.6611L47.495 13.5742ZM21.4725 3.49348L15.715 13.383H4.2175L21.4725 3.49348ZM14.77 15.0167L12.075 19.6573L3.99 15.0167H14.77ZM12.67 21.8647L22.1725 27.3221L12.67 32.7796L9.5025 27.3221L12.67 21.8647ZM11.27 21.0652L8.575 25.7057L3.1675 16.4246L11.27 21.0652ZM1.8725 17.4326L7.63 27.3221L1.8725 37.2116V17.4326ZM8.5575 28.9559L11.2525 33.5965L3.1675 38.2371L8.5575 28.9559ZM12.075 34.9869L14.77 39.6275H3.99L12.075 34.9869ZM4.2175 41.2613H15.715L21.4725 51.1508L4.2175 41.2613ZM23.0125 50.5425L17.6225 41.2613H23.0125V50.5425ZM23.0125 39.6275H16.66L13.4925 34.17L22.995 28.7126V39.6275H23.0125ZM23.0125 25.9143L13.51 20.4568L16.6775 14.9994H23.0125V25.9143ZM23.0125 13.383H17.6225L23.0125 4.1018V13.383ZM36.3825 21.0652L44.4675 16.4246L39.0775 25.7057L36.3825 21.0652ZM38.1325 27.3221L34.965 32.7796L25.4625 27.3221L34.965 21.8647L38.1325 27.3221ZM35.56 19.6573L32.865 15.0167H43.645L35.56 19.6573ZM43.4175 13.383H31.92L26.18 3.49348L43.4175 13.383ZM24.64 4.1018L30.03 13.383H24.64V4.1018ZM24.64 15.0167H30.975L34.1425 20.4742L24.64 25.9317V15.0167ZM24.64 28.73L34.1425 34.1874L30.975 39.6275H24.64V28.73ZM24.64 41.2613H30.03L24.64 50.5425V41.2613ZM26.18 51.1508L31.92 41.2613H43.4175L26.18 51.1508ZM32.865 39.6275L35.56 34.9869L43.645 39.6275H32.865ZM36.3825 33.5791L39.0775 28.9385L44.4675 38.2197L36.3825 33.5791ZM45.78 37.2116L40.0225 27.3221L45.78 17.4326V37.2116Z" fill="url(#paint0_linear_1_86)"/>
<path d="M53.97 35.2303H65.205V36.2383H55.125V44.6679H64.26V45.7107H55.125V54.3836H53.97V35.2303Z" fill="white"/>
<path d="M67.165 48.6132C67.165 45.3109 69.825 42.6343 73.2025 42.6343C76.58 42.6343 79.1875 45.3109 79.1875 48.6132C79.1875 51.9155 76.58 54.6095 73.2025 54.6095C69.825 54.6095 67.165 51.9155 67.165 48.6132ZM78.05 48.6132C78.05 45.7628 76.09 43.625 73.2025 43.625C70.315 43.625 68.3025 45.7628 68.3025 48.6132C68.3025 51.4636 70.315 53.6362 73.2025 53.6362C76.09 53.6362 78.05 51.4636 78.05 48.6132Z" fill="white"/>
<path d="M82.2325 50.1427V42.8951H83.335V49.9689C83.335 52.3153 84.4375 53.6362 86.66 53.6362C89.1625 53.6362 90.9125 51.9677 90.9125 49.3258V42.8951H92.015V54.4009H90.9125L90.9475 51.8634C90.1775 53.5841 88.585 54.6443 86.555 54.6443C83.965 54.6443 82.2325 52.9584 82.2325 50.1427Z" fill="white"/>
<path d="M95.025 42.8951H96.1275L96.0925 45.4674C96.8625 43.7293 98.4725 42.6517 100.52 42.6517C103.11 42.6517 104.825 44.3724 104.825 47.2228V54.4009H103.722V47.414C103.722 45.0502 102.62 43.6598 100.38 43.6598C97.8775 43.6598 96.1275 45.2936 96.1275 47.9702V54.4009H95.025V42.8951Z" fill="white"/>
<path d="M107.853 48.6133C107.853 45.2241 110.268 42.6344 113.593 42.6344C115.955 42.6344 117.653 43.9031 118.493 45.6238V34.0484H119.595V54.401H118.493L118.545 51.5332C117.723 53.306 115.815 54.6269 113.575 54.6269C110.268 54.6095 107.853 52.0025 107.853 48.6133ZM118.58 48.6133C118.58 45.7629 116.655 43.6251 113.733 43.6251C110.863 43.6251 109.025 45.7629 109.025 48.6133C109.025 51.4637 110.863 53.6362 113.733 53.6362C116.655 53.6362 118.58 51.4637 118.58 48.6133Z" fill="white"/>
<path d="M130.9 47.1707C130.9 44.581 129.71 43.5903 127.803 43.5903C126.035 43.5903 124.845 44.3203 124.023 45.5717L123.235 45.0155C124.198 43.5208 125.843 42.6517 127.838 42.6517C130.218 42.6517 132.003 44.0943 132.003 47.0838V54.4183H130.9L130.953 52.6455C130.218 53.7405 128.94 54.6443 126.945 54.6443C124.303 54.6443 122.57 53.4276 122.57 51.116C122.57 48.8392 124.582 47.7616 126.805 47.7616H130.9V47.1707ZM126.945 48.648C125.178 48.648 123.69 49.3258 123.69 51.0639C123.69 52.8193 124.845 53.6362 127.067 53.6362C128.992 53.6362 130.9 52.5065 130.9 50.7337V48.648H126.945Z" fill="white"/>
<path d="M136.937 51.342V43.8162H135.117V42.8777H136.937V38.8454H138.04V42.8777H141.383V43.8162H138.04V51.3072C138.04 52.9931 138.635 53.6188 139.597 53.6188C140.612 53.6188 141.015 53.2191 141.435 52.7672L142.152 53.445C141.592 54.0881 140.91 54.5921 139.597 54.5921C138.127 54.6095 136.937 53.6883 136.937 51.342Z" fill="white"/>
<path d="M145.162 37.9242C145.162 37.3854 145.617 36.9857 146.107 36.9857C146.597 36.9857 147.052 37.3854 147.052 37.9242C147.052 38.4804 146.597 38.8454 146.107 38.8454C145.617 38.8628 145.162 38.4978 145.162 37.9242ZM145.565 42.8951H146.667V54.4009H145.565V42.8951Z" fill="white"/>
<path d="M149.992 48.6132C149.992 45.3109 152.652 42.6343 156.03 42.6343C159.407 42.6343 162.015 45.3109 162.015 48.6132C162.015 51.9155 159.407 54.6095 156.03 54.6095C152.67 54.6095 149.992 51.9155 149.992 48.6132ZM160.895 48.6132C160.895 45.7628 158.935 43.625 156.047 43.625C153.16 43.625 151.147 45.7628 151.147 48.6132C151.147 51.4636 153.16 53.6362 156.047 53.6362C158.935 53.6362 160.895 51.4636 160.895 48.6132Z" fill="white"/>
<path d="M165.182 42.8951H166.285L166.25 45.4674C167.02 43.7293 168.63 42.6517 170.677 42.6517C173.267 42.6517 174.982 44.3724 174.982 47.2228V54.4009H173.88V47.414C173.88 45.0502 172.777 43.6598 170.537 43.6598C168.035 43.6598 166.285 45.2936 166.285 47.9702V54.4009H165.182V42.8951Z" fill="white"/>
<path d="M53.97 12.7051C53.97 5.5096 59.535 0.312836 66.5175 0.312836C73.4475 0.312836 79.03 5.49222 79.03 12.7051C79.03 19.9007 73.4475 25.0974 66.5175 25.0974C59.535 25.08 53.97 19.9007 53.97 12.7051ZM75.145 12.7051C75.145 7.5605 71.575 3.68465 66.5 3.68465C61.425 3.68465 57.82 7.5605 57.82 12.7051C57.82 17.8498 61.425 21.7256 66.5 21.7256C71.575 21.7082 75.145 17.8498 75.145 12.7051Z" fill="white"/>
<path d="M82.9325 9.87213H86.5725L86.4675 12.6356C87.43 10.7933 89.215 9.5419 91.7875 9.5419C95.6375 9.5419 98.7525 12.7747 98.7525 17.2762C98.7525 21.7778 95.6025 25.0801 91.7175 25.0801C89.215 25.0801 87.43 23.8808 86.5725 22.2123V32.293H82.9325V9.87213ZM95.0425 17.2762C95.0425 14.5822 93.3975 12.7399 90.79 12.7399C88.1475 12.7399 86.4325 14.5822 86.4325 17.2762C86.4325 20.0745 88.1475 21.9168 90.79 21.9168C93.415 21.9342 95.0425 20.0919 95.0425 17.2762Z" fill="white"/>
<path d="M111.125 22.0732C113.085 22.0732 114.52 21.2911 115.378 20.4742L117.478 22.6815C116.078 24.072 114.153 25.0974 111.16 25.0974C106.015 25.0974 102.69 21.7951 102.69 17.3283C102.69 12.8963 106.19 9.55927 110.688 9.55927C115.798 9.55927 118.685 13.3135 118.44 18.545H106.365C106.803 20.6828 108.378 22.0732 111.125 22.0732ZM114.817 16.0422C114.502 14.0261 113.243 12.5313 110.74 12.5313C108.413 12.5313 106.803 13.8001 106.383 16.0422H114.817Z" fill="white"/>
<path d="M122.448 9.87213H126.053L125.983 12.6356C126.91 10.689 128.8 9.5419 131.058 9.5419C134.383 9.5419 136.675 11.8883 136.675 15.9205V24.7498H133.07V16.216C133.07 14.0782 132.073 12.8442 129.955 12.8442C127.593 12.8442 126.053 14.2694 126.053 16.6679V24.7498H122.448V9.87213Z" fill="white"/>
<path d="M140.612 21.013L143.692 19.1359C144.55 20.6654 145.547 21.7256 147.332 21.7256C149.362 21.7256 150.692 20.7697 150.692 17.9714V0.643066H154.472V18.0236C154.472 22.8206 151.585 25.08 147.507 25.08C143.902 25.08 141.767 23.2377 140.612 21.013Z" fill="white"/>
<path d="M158.358 20.0918L161.473 18.3886C162.61 20.2657 164.08 21.7604 167.038 21.7604C169.505 21.7604 171.255 20.4395 171.255 18.4581C171.255 16.3724 169.82 15.4339 167.178 14.2694L165.568 13.5568C162.033 11.9925 159.88 10.2197 159.88 6.5003C159.88 2.91992 162.663 0.364991 166.705 0.364991C169.925 0.34761 172.113 1.56424 173.565 4.15394L170.608 5.96151C169.68 4.3625 168.613 3.61514 166.705 3.61514C164.78 3.61514 163.555 4.77964 163.555 6.4134C163.555 8.22097 164.588 9.03786 167.055 10.0981L168.63 10.8107C172.778 12.6182 174.983 14.5301 174.983 18.4059C174.983 22.6294 171.658 25.0801 167.09 25.0801C162.488 25.0801 159.705 22.8206 158.358 20.0918Z" fill="white"/>
</g>
<defs>
<linearGradient id="paint0_linear_1_86" x1="5.03394" y1="8.66082" x2="42.356" y2="46.2395" gradientUnits="userSpaceOnUse">
<stop offset="0.2145" stop-color="#0075C9"/>
<stop offset="0.7067" stop-color="#80BC00"/>
<stop offset="1" stop-color="#FDE021"/>
</linearGradient>
<clipPath id="clip0_1_86">
<rect width="175" height="54.6443" fill="white"/>
</clipPath>
</defs>
</svg>
