<svg width="75" height="75" viewBox="0 0 75 75" fill="none" xmlns="http://www.w3.org/2000/svg">
<path d="M34.7607 3.31055C36.5186 2.56348 38.4961 2.56348 40.2539 3.31055L66.1377 14.2969C68.5693 15.3369 70.3271 17.6953 70.3125 20.5078C70.2393 34.6582 64.4092 60.0879 40.3564 71.6016C38.5547 72.4658 36.4453 72.4658 34.6436 71.6016C10.5908 60.0732 4.76075 34.6436 4.68751 20.4932C4.67286 17.6953 6.43067 15.3223 8.86231 14.2822L34.7461 3.2959L34.7607 3.31055ZM41.1621 1.14258C38.8184 0.146484 36.1816 0.146484 33.8379 1.14258L7.95411 12.1289C4.73145 13.4912 2.32911 16.6699 2.34376 20.5078C2.417 35.0391 8.39356 61.626 33.6328 73.7109C36.0791 74.8828 38.9209 74.8828 41.3672 73.7109C66.6211 61.626 72.583 35.0391 72.6562 20.5078C72.6709 16.6699 70.2686 13.4912 67.0459 12.1289L41.1621 1.14258ZM52.3828 28.9453C52.8369 28.4912 52.8369 27.7441 52.3828 27.29C51.9287 26.8359 51.1816 26.8359 50.7275 27.29L32.8125 45.2197L24.2725 36.6797C23.8184 36.2256 23.0713 36.2256 22.6172 36.6797C22.1631 37.1338 22.1631 37.8809 22.6172 38.335L31.9922 47.71C32.4463 48.1641 33.1934 48.1641 33.6475 47.71L52.3975 28.96L52.3828 28.9453Z" fill="#80BD42"/>
</svg>
